<?xml version="1.0" encoding="UTF-8" standalone="no"?>
<svg
   xmlns:dc="http://purl.org/dc/elements/1.1/"
   xmlns:cc="http://creativecommons.org/ns#"
   xmlns:rdf="http://www.w3.org/1999/02/22-rdf-syntax-ns#"
   xmlns:svg="http://www.w3.org/2000/svg"
   xmlns="http://www.w3.org/2000/svg"
   xmlns:sodipodi="http://sodipodi.sourceforge.net/DTD/sodipodi-0.dtd"
   xmlns:inkscape="http://www.inkscape.org/namespaces/inkscape"
   id="Layer_1"
   style="enable-background:new 0 0 186.5 186.5;"
   version="1.1"
   viewBox="0 0 186.5 186.5"
   xml:space="preserve"
   sodipodi:docname="logo.svg"
   inkscape:export-filename="E:\Flutter\cook-book\assets\images\logo.png"
   inkscape:export-xdpi="206.00838"
   inkscape:export-ydpi="206.00838"
   inkscape:version="0.92.2 (5c3e80d, 2017-08-06)"><metadata
     id="metadata852"><rdf:RDF><cc:Work
         rdf:about=""><dc:format>image/svg+xml</dc:format><dc:type
           rdf:resource="http://purl.org/dc/dcmitype/StillImage" /><dc:title /></cc:Work></rdf:RDF></metadata><defs
     id="defs850" /><sodipodi:namedview
     pagecolor="#ffffff"
     bordercolor="#666666"
     borderopacity="1"
     objecttolerance="10"
     gridtolerance="10"
     guidetolerance="10"
     inkscape:pageopacity="0"
     inkscape:pageshadow="2"
     inkscape:window-width="2560"
     inkscape:window-height="1377"
     id="namedview848"
     showgrid="false"
     inkscape:zoom="6.4772118"
     inkscape:cx="3.1649414"
     inkscape:cy="93.25"
     inkscape:window-x="-8"
     inkscape:window-y="-8"
     inkscape:window-maximized="1"
     inkscape:current-layer="g845" /><style
     type="text/css"
     id="style815">
	.st0{fill:#F7E85C;}
	.st1{fill:#FFFFFF;}
	.st2{fill:#999393;}
	.st3{fill:#1B2338;}
</style><g
     id="g845"><path
       class="st0"
       d="M93.2,186.5L93.2,186.5C41.7,186.5,0,144.7,0,93.2v0C0,41.7,41.7,0,93.2,0h0c51.5,0,93.2,41.7,93.2,93.2v0   C186.5,144.7,144.7,186.5,93.2,186.5z"
       id="path817"
       style="fill:#fdcd56;fill-opacity:1"
       inkscape:export-xdpi="206.00838"
       inkscape:export-ydpi="206.00838" /><g
       id="g843"><g
         id="g825"><path
           class="st1"
           d="M60.6,27v90h-11c-0.8-4.1-4.4-7.2-8.7-7.2c-4.3,0-10.7-39.9-10.7-39.9c0-16.9,8.5-32.6,22.4-41.2l5.5-3.4     C59.1,24.7,60.6,25.6,60.6,27z"
           id="path819" /><path
           class="st2"
           d="M47.7,117.7v3.4c0,0.4,0.3,0.7,0.7,0.7h12.9c0.4,0,0.7-0.3,0.7-0.7v-3.4c0-0.4-0.3-0.7-0.7-0.7H48.4     C48,117,47.7,117.3,47.7,117.7z"
           id="path821" /><path
           class="st3"
           d="M54.8,163.3L54.8,163.3c-6.9,0-12.2-6.1-11.2-13l4.2-28.9h13.9l4.2,28.9C67,157.2,61.7,163.3,54.8,163.3z"
           id="path823" /></g><g
         id="g835"><g
           id="g831"><path
             class="st3"
             d="M99.5,154.6c0.3,4.7-3.4,8.7-8.1,8.7c-4.7,0-8.4-4-8-8.7L88.1,94l0.1-1.6h6.5l0.1,1.6L99.5,154.6z"
             id="path827" /><path
             class="st2"
             d="M94.8,94c-2.2,0.5-4.5,0.5-6.8,0l0.1-1.6h0.3c2,0.4,4,0.4,5.9,0h0.3L94.8,94z"
             id="path829" /></g><path
           class="st1"
           d="M109.8,66.8l-0.2-6.4l-1.5-33.4h-2.6l-1.1,32.3v3.6c0,1.5-1.2,2.6-2.6,2.6h0c-1.5,0-2.6-1.2-2.6-2.6v-5     L97.8,27h-2.6l-1.1,30.3v5.6c0,1.5-1.2,2.6-2.6,2.6h0c-1.4,0-2.6-1.2-2.6-2.6v-6.4c0,0,0,0,0-0.1L87.6,27H85l-1.2,32.9v3     c0,1.5-1.2,2.6-2.6,2.6h0c-1.5,0-2.6-1.2-2.6-2.6v-3.2L77.1,27h-2.6l-1.2,33.4h-0.2v4.1L73,69.4h0.2v5.1     c0,10.1,8.2,18.3,18.3,18.3c10.1,0,18.3-8.2,18.3-18.3v-5.1h0.1L109.8,66.8z"
           id="path833" /></g><g
         id="g841"><path
           class="st3"
           d="M144.3,153c0.4,5.5-4,10.3-9.6,10.3c-5.6,0-10-4.8-9.5-10.3l5.5-71.7l0.1-1.9h7.7l0.1,1.9L144.3,153z"
           id="path837" /><ellipse
           class="st1"
           cx="134.7"
           cy="52.1"
           rx="21.3"
           ry="28.9"
           id="ellipse839" /></g></g></g></svg>